<svg id="Layer_1" enable-background="new 0 0 512 512" height="512" viewBox="0 0 512 512" width="512" xmlns="http://www.w3.org/2000/svg"><g><g clip-rule="evenodd" fill-rule="evenodd"><path d="m306 185.999c0-11-9-20-20-20h-60c-11 0-20 9-20 20v140c0 11 9 20 20 20h60c11 0 20-9 20-20z" fill="#ffd0c7"/><g fill="#ffdcd5"><path d="m226 166h60c11 0 20 9 20 20v140c0 11-9 20-20 20h-60c-11 0-20-9-20-20v-140c0-11.001 9-20 20-20zm-60-116v116 180 116c0 22.001 18 40 40 40h100c22 0 40-18 40-40v-116-180-116c0-22-18-40-40-40h-100c-22 0-40 17.999-40 40z"/><path d="m166 346v-180h-116c-22 0-40 18-40 40v100c0 22 17.999 40 40 40z"/><path d="m346 166v180h116c22.001 0 40-18 40-40v-100c0-22-18-40-40-40z"/></g></g><g><path d="m462 156h-106v-106c0-27.57-22.43-50-50-50h-100c-27.57 0-50 22.43-50 50v106h-106c-27.57 0-50 22.43-50 50v100c0 27.57 22.43 50 50 50h106v106c0 27.57 22.43 50 50 50h100c27.57 0 50-22.43 50-50v-106h106c27.57 0 50-22.43 50-50v-100c0-27.571-22.43-50-50-50zm-412 180c-16.542 0-30-13.458-30-30v-100c0-16.542 13.458-30 30-30h106v160zm286 126c0 16.542-13.458 30-30 30h-100c-16.542 0-30-13.458-30-30v-412c0-16.542 13.458-30 30-30h100c16.542 0 30 13.458 30 30zm156-156c0 16.542-13.458 30-30 30h-106v-160h106c16.542 0 30 13.458 30 30z"/><path d="m286 156h-60c-16.542 0-30 13.458-30 30v24.997c.528 13.268 19.476 13.258 20 0v-24.997c0-5.514 4.486-10 10-10h60c5.514 0 10 4.486 10 10v140c0 5.514-4.486 10-10 10h-60c-5.514 0-10-4.486-10-10v-25.003c-.528-13.268-19.476-13.258-20 0v25.003c0 16.542 13.458 30 30 30h60c16.542 0 30-13.458 30-30v-140c0-16.543-13.458-30-30-30z"/><path d="m286.001 128.001c13.268-.529 13.258-19.476 0-20h-.007c-13.269.53-13.251 19.477.007 20z"/><path d="m225.999 128.001c13.268-.529 13.258-19.476 0-20h-.007c-13.269.53-13.251 19.477.007 20z"/><path d="m256.004 98c13.268-.529 13.258-19.476 0-20h-.008c-13.268.53-13.25 19.478.008 20z"/><path d="m286.001 67.999c13.268-.529 13.258-19.476 0-20h-.007c-13.269.53-13.251 19.477.007 20z"/><path d="m225.999 67.999c13.268-.529 13.258-19.476 0-20h-.007c-13.269.53-13.251 19.477.007 20z"/><path d="m118.001 215.999c-5.522 0-10 4.477-10 10v.007c0 5.523 4.478 9.997 10 9.997 13.263-.529 13.262-19.48 0-20.004z"/><path d="m118.001 276.001c-5.522 0-10 4.477-10 10v.008c0 5.523 4.478 9.996 10 9.996 13.263-.529 13.262-19.48 0-20.004z"/><path d="m88 245.996c-5.522 0-10 4.477-10 10v.007c0 5.523 4.478 9.997 10 9.997 13.263-.528 13.262-19.479 0-20.004z"/><path d="m57.999 215.999c-5.522 0-10 4.477-10 10v.007c0 5.523 4.478 9.997 10 9.997 13.263-.529 13.262-19.48 0-20.004z"/><path d="m57.999 276.001c-5.522 0-10 4.477-10 10v.008c0 5.523 4.478 9.996 10 9.996 13.263-.529 13.262-19.48 0-20.004z"/><path d="m225.999 383.999c-13.268.529-13.258 19.476 0 20h.008c13.268-.531 13.25-19.478-.008-20z"/><path d="m286.001 383.999c-13.268.529-13.258 19.476 0 20h.008c13.268-.531 13.25-19.478-.008-20z"/><path d="m255.996 414c-13.268.529-13.258 19.476 0 20h.008c13.268-.53 13.25-19.478-.008-20z"/><path d="m225.999 444.001c-13.268.529-13.258 19.476 0 20h.008c13.268-.53 13.25-19.478-.008-20z"/><path d="m286.001 444.001c-13.268.529-13.258 19.476 0 20h.008c13.268-.53 13.25-19.478-.008-20z"/><path d="m393.999 275.997c-5.522 0-10 4.481-10 10.004.527 13.265 19.476 13.26 20 0v-.007c0-5.524-4.478-9.997-10-9.997z"/><path d="m393.999 215.995c-5.522 0-10 4.481-10 10.004.527 13.265 19.476 13.26 20 0v-.007c0-5.523-4.478-9.997-10-9.997z"/><path d="m424 246c-5.522 0-10 4.481-10 10.004.527 13.265 19.476 13.26 20 0v-.007c0-5.524-4.478-9.997-10-9.997z"/><path d="m454.001 275.997c-5.522 0-10 4.481-10 10.004.527 13.265 19.476 13.26 20 0v-.007c0-5.524-4.478-9.997-10-9.997z"/><path d="m454.001 215.995c-5.522 0-10 4.481-10 10.004.527 13.265 19.476 13.26 20 0v-.007c0-5.523-4.478-9.997-10-9.997z"/><path d="m206 266c5.522 0 10-4.477 10-10v-.007c0-5.523-4.478-9.996-10-9.996-13.264.528-13.262 19.478 0 20.003z"/></g></g></svg>